<?xml version="1.0" standalone="no"?>
<!DOCTYPE svg PUBLIC "-//W3C//DTD SVG 20010904//EN"
 "http://www.w3.org/TR/2001/REC-SVG-20010904/DTD/svg10.dtd">
<svg version="1.0" xmlns="http://www.w3.org/2000/svg"
 width="512.000000pt" height="512.000000pt" viewBox="0 0 512.000000 512.000000"
 preserveAspectRatio="xMidYMid meet">
<metadata>
Created by potrace 1.11, written by Peter Selinger 2001-2013
</metadata>
<g transform="translate(0.000000,512.000000) scale(0.100000,-0.100000)"
fill="#000000" stroke="none">
<path d="M2410 5113 c-542 -39 -1033 -227 -1450 -557 -97 -77 -319 -299 -396
-396 -614 -777 -733 -1811 -310 -2705 123 -259 282 -481 501 -700 402 -402
874 -640 1440 -726 167 -26 500 -31 660 -10 475 60 875 223 1265 515 122 91
375 344 466 466 292 390 455 790 515 1265 21 160 16 493 -10 660 -86 566 -323
1037 -726 1440 -325 325 -674 530 -1123 659 -247 71 -582 107 -832 89z m-290
-1553 l0 -440 28 -1 c15 0 213 -1 439 -2 l413 -2 0 443 0 443 58 -3 57 -3 1
-433 c1 -238 4 -435 8 -439 3 -3 189 -6 414 -5 224 1 419 -1 435 -4 25 -5 27
-9 27 -60 l0 -54 -440 0 -440 0 -1 -70 c0 -38 -1 -216 -1 -395 0 -179 1 -345
1 -370 l1 -45 440 0 441 0 -3 -57 -3 -58 -433 -2 c-238 0 -436 -3 -439 -6 -3
-3 -6 -201 -6 -439 l-2 -433 -57 -3 -58 -3 0 441 0 440 -45 1 c-25 0 -191 1
-370 1 -179 0 -356 -1 -395 -1 l-70 -1 0 -440 0 -440 -54 0 c-51 0 -55 2 -60
28 -3 15 -5 210 -4 434 1 225 -2 411 -5 414 -4 4 -201 7 -439 8 l-433 1 -3 58
-3 57 443 0 443 0 -2 413 c-1 226 -2 424 -2 440 l-1 27 -440 0 -441 0 3 58 3
57 439 1 439 1 0 434 c0 239 1 437 4 442 2 4 29 7 59 7 l54 0 0 -440z m1632
-693 c61 -30 105 -74 140 -140 20 -36 23 -57 23 -152 0 -100 -2 -115 -28 -167
-100 -204 -380 -255 -546 -100 -74 70 -106 144 -106 252 0 108 32 182 106 252
74 70 131 89 254 85 86 -2 108 -6 157 -30z m-1044 -1012 c256 -117 259 -497 4
-622 -50 -25 -68 -28 -152 -28 -84 0 -102 3 -151 28 -63 31 -126 93 -160 159
-31 60 -38 195 -14 267 33 102 125 187 234 218 67 19 170 9 239 -22z m-1203
-174 c27 -28 53 -51 58 -51 5 0 57 45 115 100 l106 101 40 -40 40 -41 -109
-103 -109 -103 110 -106 109 -106 -34 -36 c-19 -20 -40 -36 -46 -36 -6 0 -33
23 -60 51 -28 28 -76 73 -107 100 l-57 50 -104 -101 c-57 -55 -109 -100 -114
-100 -5 0 -24 16 -43 35 l-34 35 104 105 105 105 -105 105 -104 105 38 39 39
40 56 -49 c31 -26 78 -71 106 -99z"/>
<path d="M2120 2560 l0 -440 440 0 440 0 0 440 0 440 -440 0 -440 0 0 -440z
m335 190 l112 -110 104 108 c57 59 105 109 106 111 2 2 18 -13 37 -35 l35 -39
-106 -107 -106 -106 99 -102 c54 -56 100 -107 102 -114 1 -6 -14 -27 -33 -46
l-36 -35 -106 108 -106 109 -111 -111 -112 -111 -39 40 -39 40 111 111 111
111 -110 106 -109 105 38 39 c20 21 39 38 41 38 2 0 55 -49 117 -110z"/>
</g>
</svg>
